<svg xmlns="http://www.w3.org/2000/svg"
shape-rendering="geometricPrecision"
width="4000" height="4000" viewBox="0 0 633 633">
  <metadata>null</metadata>

<path d="
M 28.88 240.072
C 31.267 229.51 44.295 225.179 52.684 231.933
C 55.208 233.966 56.867 237.044 57.656 240.156
C 58.261 242.537 58.168 245.072 57.623 247.454
C 57.208 249.271 56.331 251.139 55.3 252.688
C 50.682 259.626 40.226 259.962 34.126 254.962
C 29.806 251.422 27.638 245.568 28.88 240.072 Z"
opacity="1" fill="rgb(246,124,28)" fill-rule="evenodd" />
<path d="
M 30.359 271.28
C 33.531 270.951 36.814 271.223 40.004 271.221
C 45.033 271.217 50.129 271.092 55.149 271.328
C 55.381 271.69 54.196 272.657 53.927 272.966
C 52.614 274.471 51.219 275.908 49.848 277.361
C 45.134 282.351 40.553 287.462 35.866 292.476
C 34.614 293.815 33.383 295.177 32.126 296.51
C 31.717 296.943 31.072 297.893 30.492 297.994
C 30.838 293.696 30.646 289.33 30.654 285.008
C 30.663 280.447 30.848 275.821 30.359 271.28 Z"
opacity="1" fill="rgb(239,122,27)" fill-rule="evenodd" />
<path d="
M 30.38 305.576
C 30.396 305.425 30.411 305.273 30.427 305.121
C 32.815 301.715 36.3 298.654 39.125 295.57
C 44.518 289.682 49.554 283.389 55.615 278.167
C 56.347 278.409 55.968 282.437 55.995 283.217
C 56.183 288.637 56.068 294.078 56.085 299.501
C 56.135 315.118 56.095 330.743 55.96 346.353
C 55.901 353.166 56.566 360.155 55.908 366.928
C 50.61 366.985 45.301 366.899 40.001 366.912
C 36.902 366.919 33.629 367.23 30.552 366.896
C 29.753 358.739 30.417 350.196 30.415 341.994
C 30.412 329.883 29.969 317.677 30.38 305.576 Z"
opacity="1" fill="rgb(243,121,26)" fill-rule="evenodd" />
<path d="
M 298.519 417.366
C 297.837 418.044 296.769 418.342 296 418.961
C 293.132 421.269 290.387 423.789 287.551 426.147
C 282.465 430.377 277.619 434.975 272.264 438.877
C 264.684 444.401 256.553 449.269 248.224 453.57
C 212.863 471.83 171.835 475.57 133.633 465.097
C 121.102 461.662 108.264 456.272 97.179 449.472
C 93.043 446.934 89.209 443.812 84.988 441.442
C 83.286 440.577 81.723 439.014 80.216 437.835
C 76.143 434.652 72.311 431.216 68.633 427.584
C 54.081 413.217 43.342 396.514 34.483 378.205
C 39.943 378.51 45.535 378.132 51.01 378.112
C 62.843 378.068 74.675 378.02 86.508 378.046
C 92.141 378.059 98.073 377.562 103.67 378.166
C 144.955 412.423 199.957 426.268 252.871 419.455
C 268.121 417.491 282.586 413.242 297.174 408.631
C 297.732 411.513 298.06 414.463 298.519 417.366 Z"
opacity="1" fill="rgb(22,22,22)" fill-rule="evenodd" />
<path d="
M 95.859 183.308
C 96.63 183.711 99.386 181.457 100.151 181.056
C 104.755 178.646 109.415 176.389 114.102 174.148
C 130.266 166.416 149.002 162.557 166.819 161.776
C 216.685 159.589 266.621 180.435 299.018 218.73
C 305.614 226.528 311.664 234.976 316.341 244.072
C 318.899 249.049 320.677 254.532 323.493 259.357
C 318.026 259.608 312.478 259.318 307.003 259.315
C 296.837 259.31 286.674 259.414 276.509 259.449
C 271.26 259.468 266.01 259.445 260.761 259.49
C 258.75 259.508 256.236 260.055 254.279 259.532
C 252.527 259.065 250.827 256.812 249.506 255.623
C 246.074 252.537 242.526 249.627 238.954 246.706
C 229.263 238.78 218.203 232.088 207.004 226.536
C 188.47 217.346 168.719 211.265 148.383 207.619
C 142.417 206.55 136.38 206.189 130.375 205.486
C 122.489 204.564 114.196 204.881 106.284 205.273
C 104.085 205.382 101.825 205.874 99.646 205.858
C 100.748 209.572 103.102 213.233 105.093 216.524
C 104.437 216.789 103.252 216.005 102.554 215.845
C 100.225 215.31 97.915 214.674 95.596 214.094
C 86.834 211.902 78.063 208.701 69.194 207.067
C 69.749 204.734 71.332 202.33 72.368 200.158
C 74.812 195.038 77.259 189.923 79.785 184.842
C 81.277 181.839 82.649 177.498 85.013 175.115
C 85.818 175.805 86.104 177.159 86.47 178.135
C 87.244 180.198 88.042 182.26 88.847 184.312
C 89.069 184.878 89.824 187.359 90.323 187.391
C 92.09 185.952 93.718 184.234 95.859 183.308 Z"
opacity="1" fill="rgb(21,21,21)" fill-rule="evenodd" />
<path d="
M 71.698 271.229
C 79.153 271.37 86.623 270.98 94.076 271.148
C 96.754 280.484 103.732 288.359 106.907 297.481
C 106.32 298.568 104.316 299.487 103.392 300.434
C 101.331 302.547 99.955 305.278 98.901 308.002
C 96.511 314.177 96.792 320.637 96.848 327.139
C 96.916 334.929 96.934 342.72 96.939 350.511
C 96.942 354.24 96.92 357.97 96.936 361.699
C 96.943 363.206 96.715 365.765 97.206 367.142
C 95.519 366.28 91.894 366.915 90.006 366.918
C 84.017 366.93 77.812 366.428 71.852 367.031
C 71.051 364.227 71.736 360.428 71.733 357.506
C 71.726 350.506 71.711 343.505 71.704 336.505
C 71.69 322.506 71.747 308.506 71.723 294.506
C 71.709 286.775 71.314 278.949 71.698 271.229 Z"
opacity="1" fill="rgb(21,22,22)" fill-rule="evenodd" />
<path d="
M 84.988 441.442
C 89.209 443.812 93.043 446.934 97.179 449.472
C 108.264 456.272 121.102 461.662 133.633 465.097
C 171.835 475.57 212.863 471.83 248.224 453.57
C 256.553 449.269 264.684 444.401 272.264 438.877
C 277.619 434.975 282.465 430.377 287.551 426.147
C 290.387 423.789 293.132 421.269 296 418.961
C 296.769 418.342 297.837 418.044 298.519 417.366
C 299.121 418.837 299.127 420.517 299.331 422.076
C 299.324 422.095 297.13 422.507 296.843 422.675
C 295.031 423.738 293.436 425.359 291.938 426.815
C 284.8 433.755 277.459 440.568 269.384 446.418
C 249.252 461 226.257 470.747 201.638 474.363
C 191.572 475.841 181.202 476.67 171.032 475.602
C 157.833 474.215 145.199 471.653 132.497 467.795
C 119.845 463.953 107.912 457.487 96.829 450.385
C 93.739 448.405 90.434 446.54 87.655 444.123
C 86.714 443.304 85.487 442.629 84.988 441.442 Z"
opacity="1" fill="rgb(230,127,47)" fill-rule="evenodd" />
<path d="
M 323.493 259.357
C 320.677 254.532 318.899 249.049 316.341 244.072
C 311.664 234.976 305.614 226.528 299.018 218.73
C 266.621 180.435 216.685 159.589 166.819 161.776
C 149.002 162.557 130.266 166.416 114.102 174.148
C 109.415 176.389 104.755 178.646 100.151 181.056
C 99.386 181.457 96.63 183.711 95.859 183.308
C 96.606 181.989 98.294 181.441 99.537 180.702
C 101.914 179.288 104.156 177.657 106.552 176.216
C 117.654 169.537 129.742 164.633 142.32 161.534
C 155.884 158.191 169.804 156.369 183.799 156.684
C 226.491 157.647 267.449 176.945 295.738 208.826
C 305.541 219.874 313.933 232.165 320.209 245.547
C 321.802 248.943 323.553 252.352 324.469 256.007
C 324.708 256.96 325.575 258.329 325.461 259.281
C 324.805 259.316 324.148 259.311 323.493 259.357 Z"
opacity="1" fill="rgb(230,126,45)" fill-rule="evenodd" />
<path d="
M 101.462 275.389
C 117.269 266.512 137.283 267.786 151.393 279.553
C 155.946 283.349 159.682 288.32 162.413 293.562
C 168.173 304.618 168.202 316.364 168.196 328.5
C 168.191 337.834 168.174 347.167 168.192 356.501
C 168.197 359 168.217 361.499 168.215 363.998
C 168.214 364.713 167.941 366.481 168.295 367.068
C 162.39 366.796 156.434 366.957 150.507 366.917
C 148.224 366.902 145.19 367.433 143.027 366.801
C 142.636 355.478 142.669 343.836 142.959 332.493
C 143.139 325.434 143.926 317.561 142.067 310.676
C 139.49 301.137 131.572 294.029 121.543 293.414
C 118.011 293.198 114.785 294.016 111.454 295.058
C 109.979 293.235 109.111 290.694 108.082 288.591
C 105.916 284.169 103.732 279.753 101.462 275.389 Z"
opacity="1" fill="rgb(22,22,22)" fill-rule="evenodd" />
<path d="
M 180.734 271.262
C 185.638 270.988 190.592 271.231 195.506 271.247
C 198.852 271.258 202.398 270.951 205.72 271.313
C 205.191 275.177 205.74 279.579 205.755 283.499
C 205.787 291.499 205.781 299.499 205.808 307.499
C 205.834 315.106 204.721 323.702 207.425 330.958
C 211.261 341.254 222.812 346.588 233.265 343.593
C 238.004 342.235 241.359 339.566 244.715 336.105
C 245.159 336.423 244.951 337.281 244.906 337.757
C 244.757 339.318 244.818 340.92 244.815 342.487
C 244.807 346.99 244.83 351.496 244.905 355.998
C 244.943 358.278 245.377 361.089 244.802 363.3
C 238.56 366.691 231.819 368.733 224.676 368.745
C 219.296 368.754 213.851 367.761 208.817 365.857
C 205.132 364.462 201.61 362.63 198.422 360.309
C 188.641 353.185 182.714 341.894 181.008 330.003
C 180.258 324.773 180.667 319.279 180.669 314.01
C 180.672 299.829 181.497 285.417 180.734 271.262 Z"
opacity="1" fill="rgb(242,122,28)" fill-rule="evenodd" />
<path d="
M 249.418 327.073
C 251.445 320.744 250.375 313.061 250.353 306.503
C 250.313 294.787 250.787 282.989 250.369 271.283
C 252.442 270.518 255.778 271.13 258.004 271.125
C 263.733 271.114 269.822 270.653 275.513 271.281
C 274.875 285.748 275.699 300.488 275.709 314.998
C 275.713 320.18 276.33 325.765 275.71 330.899
C 275.38 331.843 274.464 332.643 273.897 333.469
C 272.879 334.953 271.926 336.493 270.957 338.01
C 266.459 345.051 261.502 351.837 256.376 358.433
C 254.841 360.407 253.347 362.417 251.781 364.365
C 251.184 365.109 250.61 366.175 249.566 366.184
C 249.284 357.469 249.442 348.721 249.401 339.994
C 249.382 335.895 248.406 331.031 249.418 327.073 Z"
opacity="1" fill="rgb(242,124,29)" fill-rule="evenodd" />
<path d="
M 256.524 366.086
C 262.964 357.35 268.761 348.149 275.249 339.447
C 275.976 338.982 275.684 340.908 275.695 341.5
C 275.734 343.664 275.761 345.83 275.762 347.996
C 275.765 352.164 275.759 356.331 275.765 360.499
C 275.769 362.57 275.527 364.883 275.87 366.92
C 271.249 366.723 266.623 366.74 261.996 366.77
C 260.418 366.78 257.569 367.339 256.173 366.672
C 256.29 366.477 256.407 366.281 256.524 366.086 Z"
opacity="1" fill="rgb(239,125,31)" fill-rule="evenodd" />
<path d="
M 286.473 316.115
C 287.614 307.532 289.429 299.282 294.244 291.907
C 306.129 273.702 331.221 263.947 351.833 272.908
C 357.883 275.538 362.603 280.853 367.182 285.447
C 374.275 292.564 381.743 299.428 388.548 306.818
C 389.03 307.876 388.681 309.357 388.679 310.5
C 388.672 313.667 388.668 316.833 388.654 320
C 388.605 330.998 388.628 341.996 388.574 352.994
C 388.557 356.536 388.558 360.049 388.628 363.594
C 388.637 364.055 388.942 366.733 388.586 366.868
C 383.243 366.589 377.846 366.743 372.496 366.752
C 370.429 366.756 368.179 367.095 366.141 366.836
C 364.598 359.396 362.284 352.145 360.052 344.877
C 359.172 342.012 357.203 338.305 357.112 335.351
C 366.609 324.966 363.498 306.423 352.428 298.374
C 342.67 291.278 329.255 292.043 320.186 299.788
C 307.393 310.713 309.643 331.828 323.169 340.97
C 332.407 347.214 344.298 345.777 353.084 339.655
C 355.094 344.281 356.301 349.522 357.934 354.321
C 358.466 355.885 359.967 358.751 359.753 360.318
C 357.284 361.874 354.991 363.601 352.321 364.84
C 347.29 367.174 341.974 368.112 336.494 368.555
C 332.192 368.904 327.587 368.022 323.425 367.039
C 300.798 361.7 284.811 339.231 286.473 316.115 Z"
opacity="1" fill="rgb(22,22,22)" fill-rule="evenodd" />
<path d="
M 321.455 210.096
C 323.575 192.137 344.649 182.922 359.535 192.764
C 362.024 194.409 364.167 196.631 365.849 199.089
C 367.474 201.465 368.781 204.2 369.396 207.024
C 370.045 210.001 370.425 212.919 370.022 215.962
C 369.202 222.159 366.101 228.334 361.111 232.227
C 350.979 240.129 335.001 239.086 326.725 228.957
C 324.762 226.556 323.286 223.872 322.333 220.917
C 321.225 217.484 321.034 213.662 321.455 210.096 Z
M 332.435 210.591
C 332.102 212.406 332.195 214.352 332.562 216.154
C 335.4 230.096 356.491 229.842 359.099 215.919
C 361.258 204.394 348.484 195.45 338.453 201.646
C 336.86 202.63 335.519 203.967 334.466 205.504
C 333.426 207.022 332.766 208.789 332.435 210.591 Z"
opacity="1" fill="rgb(23,22,22)" fill-rule="evenodd" />
<path d="
M 362.959 271.945
C 363.075 271.838 363.191 271.73 363.307 271.622
C 371.687 271.114 380.296 272.143 388.626 271.267
C 388.845 275.122 388.411 279.135 388.375 283.006
C 388.322 288.592 388.597 294.28 388.288 299.847
C 382.248 293.459 375.85 287.397 369.704 281.106
C 368.448 279.82 367.171 278.573 365.753 277.464
C 364.652 276.603 363.278 275.876 362.741 274.523
C 362.693 273.637 362.744 272.807 362.959 271.945 Z"
opacity="1" fill="rgb(21,22,22)" fill-rule="evenodd" />
<path d="
M 401.574 336.35
C 404.752 336.427 407.917 336.251 411.092 336.203
C 411.449 339.703 412.162 342.666 414.112 345.647
C 415.346 347.533 417.007 349.149 418.869 350.412
C 430.781 358.491 447.144 349.688 447.447 335.459
C 447.492 333.358 447.267 331.241 446.584 329.246
C 445.698 326.656 444.234 324.134 442.346 322.147
C 440.318 320.013 437.729 318.533 434.925 317.665
C 431.196 316.512 426.424 316.303 422.568 316.896
C 421.678 317.032 420.875 317.657 419.994 317.687
C 419.324 315.528 417.089 313.591 416.662 311.544
C 421.631 304.401 427.065 297.478 432.229 290.457
C 433.946 288.122 435.717 285.844 437.387 283.473
C 437.888 282.761 438.726 282.221 439.026 281.411
C 436.038 281.901 432.55 281.379 429.506 281.395
C 421.337 281.437 413.052 281.02 404.9 281.471
C 404.197 278.649 404.851 274.758 404.923 271.837
C 406.078 271.237 408.095 271.48 409.415 271.46
C 412.611 271.41 415.81 271.444 419.007 271.44
C 430.537 271.429 442.167 271.096 453.685 271.615
C 453.675 273.975 453.949 276.445 453.631 278.788
C 452.975 279.89 451.823 280.775 451.014 281.782
C 449.199 284.044 447.509 286.433 445.782 288.763
C 441.241 294.886 436.896 301.215 432.207 307.219
C 432.735 307.521 433.489 307.32 434.089 307.398
C 435.898 307.634 437.81 308.113 439.551 308.658
C 444.834 310.311 449.694 314.135 452.749 318.719
C 454.85 321.87 456.243 325.437 457.044 329.127
C 457.749 332.37 457.742 335.655 457.376 338.924
C 457.045 341.892 456.125 344.715 454.892 347.421
C 447.137 364.439 424.139 368.337 410.109 356.764
C 406.077 353.438 403.165 348.563 401.899 343.512
C 401.328 341.233 401.424 338.822 400.841 336.576
C 401.085 336.501 401.329 336.425 401.574 336.35 Z"
opacity="1" fill="rgb(21,22,22)" fill-rule="evenodd" />
<path d="
M 462.934 332.611
C 464.787 322.269 470.573 313.469 475.429 304.314
C 481.152 293.526 486.36 282.033 492.992 271.778
C 496.583 271.101 500.597 272.411 504.141 271.503
C 504.499 271.433 503.636 272.707 503.559 272.845
C 503.108 273.646 502.656 274.453 502.224 275.266
C 500.773 277.998 499.211 280.673 497.782 283.416
C 493.651 291.344 489.616 299.358 485.266 307.159
C 485.849 307.411 486.998 306.752 487.606 306.603
C 489.497 306.139 491.45 305.868 493.399 305.903
C 499.927 306.019 505.982 308.18 511.042 312.275
C 515.053 315.521 518.169 320.102 519.845 324.97
C 521.411 329.515 522.032 334.136 521.259 338.907
C 518.084 358.53 496.183 368.898 478.64 360.601
C 475.716 359.218 472.968 357.271 470.741 354.917
C 467.651 351.651 465.444 347.715 464.053 343.444
C 462.939 340.021 462.485 336.191 462.934 332.611 Z
M 473.433 333.107
C 473.193 335.637 473.542 338.382 474.345 340.793
C 475.159 343.235 476.36 345.48 478.053 347.434
C 484.977 355.42 498.196 355.236 505.631 348.054
C 508.851 344.943 510.732 340.398 511.129 335.985
C 511.336 333.673 510.971 331.265 510.304 329.051
C 505.592 313.434 483.913 311.32 475.902 325.236
C 474.533 327.615 473.692 330.373 473.433 333.107 Z"
opacity="1" fill="rgb(22,22,22)" fill-rule="evenodd" />
<path d="
M 527.453 295.111
C 528.018 288.718 531.029 281.909 535.944 277.68
C 546.757 268.374 565.331 268.182 574.942 279.477
C 583.517 289.555 581.775 302.666 581.771 315
C 581.768 322.932 582.422 331.23 581.527 339.117
C 580.792 345.593 578.212 351.74 573.439 356.283
C 562.423 366.77 543.164 365.814 533.483 353.946
C 526.51 345.397 527.29 335.208 527.248 324.852
C 527.208 315.034 526.588 304.892 527.453 295.111 Z
M 537.514 297.619
C 537.081 308.036 537.614 318.568 537.634 328.998
C 537.645 334.664 537.058 340.841 540.37 345.784
C 547.369 356.23 564.507 355.847 569.88 343.924
C 570.654 342.206 571.128 340.368 571.27 338.489
C 572.073 327.936 571.409 317.083 571.401 306.501
C 571.396 299.993 572.007 293.427 568.222 287.729
C 562.974 279.828 550.963 278.847 543.762 284.538
C 539.802 287.668 537.72 292.67 537.514 297.619 Z"
opacity="1" fill="rgb(22,22,23)" fill-rule="evenodd" />
<path d="
M 584.487 279.607
C 584.565 278.278 584.939 277.004 585.493 275.805
C 590.199 265.627 605.281 270.44 604.696 281.168
C 604.121 291.699 589.531 293.383 585.269 284.362
C 584.611 282.967 584.398 281.136 584.487 279.607 Z
M 588.46 279.6
C 588.283 281.96 589.467 284.831 591.576 286.034
C 595.252 288.129 600.533 285.933 600.949 281.595
C 601.242 278.54 599.838 275.506 596.904 274.256
C 593.095 272.634 588.76 275.622 588.46 279.6 Z"
opacity="1" fill="rgb(218,117,28)" fill-rule="evenodd" />

</svg>